<svg xmlns="http://www.w3.org/2000/svg" viewBox="0 0 1440 320"><path fill="#fc8471" fill-opacity="1" d="M0,320L34.3,298.7C68.6,277,137,235,206,192C274.3,149,343,107,411,106.7C480,107,549,149,617,160C685.7,171,754,149,823,149.3C891.4,149,960,171,1029,181.3C1097.1,192,1166,192,1234,202.7C1302.9,213,1371,235,1406,245.3L1440,256L1440,0L1405.7,0C1371.4,0,1303,0,1234,0C1165.7,0,1097,0,1029,0C960,0,891,0,823,0C754.3,0,686,0,617,0C548.6,0,480,0,411,0C342.9,0,274,0,206,0C137.1,0,69,0,34,0L0,0Z"></path></svg>