<svg height="512" viewBox="0 0 64 64" width="512" xmlns="http://www.w3.org/2000/svg"><g id="Filled_outline" data-name="Filled outline"><path d="m59 61h-20l-2-2v-18l2-4h20l2 4v18z" fill="#87cee9"/><path d="m39 33h20v4h-20z" fill="#50b4f8"/><path d="m37 41h24v16h-24z" fill="#f9bb4b"/><path d="m3 17h4v4h-4z" fill="#ad6327" transform="matrix(0 1 -1 0 24 14)"/><path d="m25 15h4v8h-4z" fill="#ad6327" transform="matrix(0 1 -1 0 46 -8)"/><g fill="#ffd782"><path d="m17 27a2 2 0 0 0 2-2 2 2 0 0 0 4 0v-8h4v-6l-4-4v-4h-13v4l-3 3v13a2 2 0 0 0 4 0v2a2 2 0 0 0 4 0 2 2 0 0 0 2 2z"/><rect height="4" rx="2" transform="matrix(0 1 -1 0 41 -1)" width="14" x="14" y="18"/><rect height="4" rx="2" transform="matrix(0 1 -1 0 37 3)" width="14" x="10" y="18"/><rect height="4" rx="2" transform="matrix(0 1 -1 0 33 7)" width="14" x="6" y="18"/><rect height="4" rx="2" transform="matrix(0 1 -1 0 28 10)" width="12" x="3" y="17"/><path d="m23 21h2a2 2 0 0 1 2 2v2a0 0 0 0 1 0 0h-4a0 0 0 0 1 0 0v-4a0 0 0 0 1 0 0z" transform="matrix(0 1 -1 0 48 -2)"/></g><path d="m33 14a2 2 0 0 1 2 2v4a0 0 0 0 1 0 0h-4a0 0 0 0 1 0 0v-4a2 2 0 0 1 2-2z" fill="#fcf05a"/><path d="m37 14a2 2 0 0 1 2 2v4a0 0 0 0 1 0 0h-4a0 0 0 0 1 0 0v-4a2 2 0 0 1 2-2z" fill="#e37f55"/><path d="m41 14a2 2 0 0 1 2 2v4a0 0 0 0 1 0 0h-4a0 0 0 0 1 0 0v-4a2 2 0 0 1 2-2z" fill="#fcf05a"/><path d="m45 14a2 2 0 0 1 2 2v4a0 0 0 0 1 0 0h-4a0 0 0 0 1 0 0v-4a2 2 0 0 1 2-2z" fill="#e37f55"/><path d="m31 20v3a1 1 0 0 0 1 1 1 1 0 0 1 1 1v8a2.154 2.154 0 0 0 2 2 1.994 1.994 0 0 0 2-2v-5a2.157 2.157 0 0 1 2-2 1.994 1.994 0 0 1 2 2v1a2.157 2.157 0 0 0 2 2 1.994 1.994 0 0 0 2-2v-4a1 1 0 0 1 1-1 1 1 0 0 0 1-1v-3z" fill="#ffd782"/><ellipse cx="49" cy="50" fill="#e37f55" rx="2" ry="3"/><ellipse cx="44" cy="50" fill="#f4f4e6" rx="3" ry="2"/><ellipse cx="54" cy="50" fill="#f4f4e6" rx="3" ry="2"/><path d="m39 27a.994.994 0 0 1 1 1v1a3.16 3.16 0 0 0 3 3 3.007 3.007 0 0 0 3-3v-4a2 2 0 0 0 2-2v-7a2.987 2.987 0 0 0 -5-2.22 2.954 2.954 0 0 0 -4 0 2.954 2.954 0 0 0 -4 0 2.987 2.987 0 0 0 -5 2.22h-2v-5a1 1 0 0 0 -.293-.707l-3.707-3.707v-3.586a1 1 0 0 0 -1-1h-13a1 1 0 0 0 -1 1v3.586l-2.707 2.707a1 1 0 0 0 -.293.707v6h-3a1 1 0 0 0 -1 1v4a1 1 0 0 0 1 1h3v1a2.99 2.99 0 0 0 4.116 2.78 2.973 2.973 0 0 0 4.884 1.44 2.954 2.954 0 0 0 4 0 2.972 2.972 0 0 0 4.816-1.22h1.184a3 3 0 0 0 3-3v-1h2v1a2 2 0 0 0 2 2v8a3.16 3.16 0 0 0 3 3 3.007 3.007 0 0 0 3-3v-5a1.19 1.19 0 0 1 1-1zm-33-7h-2v-2h2zm4 3a1 1 0 0 1 -2 0v-8a1 1 0 0 1 2 0zm4 2a1 1 0 0 1 -2 0v-10a1 1 0 0 1 2 0zm4 0a1 1 0 0 1 -2 0v-10a1 1 0 0 1 2 0zm4 0a1 1 0 0 1 -2 0v-10a1 1 0 0 1 2 0zm-1-13a2.981 2.981 0 0 0 -2 .78 2.954 2.954 0 0 0 -4 0 2.954 2.954 0 0 0 -4 0 2.908 2.908 0 0 0 -3-.6v-1.77l2.707-2.707a1 1 0 0 0 .293-.703v-3h11v3a1 1 0 0 0 .293.707l3.707 3.707v4.586h-2v-1a3 3 0 0 0 -3-3zm5 11a1 1 0 0 1 -1 1h-1v-2h2zm4-3h-6v-2h6zm14-4a1 1 0 0 1 2 0v3h-2zm-4 0a1 1 0 0 1 2 0v3h-2zm-4 0a1 1 0 0 1 2 0v3h-2zm-4 0a1 1 0 0 1 2 0v3h-2zm4 12v5a.994.994 0 0 1 -1 1 1.171 1.171 0 0 1 -1-1v-8a2 2 0 0 0 -2-2v-2h14v2a2 2 0 0 0 -2 2v4a.994.994 0 0 1 -1 1 1.19 1.19 0 0 1 -1-1v-1a3.007 3.007 0 0 0 -3-3 3.16 3.16 0 0 0 -3 3z"/><path d="m60 36.764v-3.764a1 1 0 0 0 -1-1h-20a1 1 0 0 0 -1 1v3.764l-1.9 3.789a1 1 0 0 0 -.1.447v18a1 1 0 0 0 .293.707l2 2a1 1 0 0 0 .707.293h20a1 1 0 0 0 .707-.293l2-2a1 1 0 0 0 .293-.707v-18a1 1 0 0 0 -.1-.447zm-20-2.764h18v2h-18zm-.382 4h18.764l1 2h-20.764zm20.382 20.586-1.414 1.414h-19.172l-1.414-1.414v-.586h22zm0-2.586h-22v-14h22z"/><path d="m44 53a4.848 4.848 0 0 0 2.544-.686 2.632 2.632 0 0 0 4.912 0 4.848 4.848 0 0 0 2.544.686c2.243 0 4-1.317 4-3s-1.757-3-4-3a4.848 4.848 0 0 0 -2.544.686 3.762 3.762 0 0 0 -.42-.631l.279-.841a1 1 0 0 1 1.266-.632l1.1.367.632-1.9-1.1-.366a3 3 0 0 0 -3.8 1.9l-.151.454a2.377 2.377 0 0 0 -.262-.037 2.347 2.347 0 0 0 -.267.035l-.152-.454a3 3 0 0 0 -3.8-1.9l-1.1.367.632 1.9 1.1-.368a1 1 0 0 1 .764.055.99.99 0 0 1 .5.578l.28.841a3.762 3.762 0 0 0 -.42.631 4.848 4.848 0 0 0 -2.537-.685c-2.243 0-4 1.317-4 3s1.757 3 4 3zm10-4c1.221 0 2 .592 2 1s-.779 1-2 1-2-.592-2-1 .779-1 2-1zm-5-1c.408 0 1 .779 1 2s-.592 2-1 2-1-.779-1-2 .592-2 1-2zm-5 1c1.221 0 2 .592 2 1s-.779 1-2 1-2-.592-2-1 .779-1 2-1z"/></g></svg>