<?xml version="1.0" standalone="no"?>
<!DOCTYPE svg PUBLIC "-//W3C//DTD SVG 20010904//EN"
 "http://www.w3.org/TR/2001/REC-SVG-20010904/DTD/svg10.dtd">
<svg version="1.0" xmlns="http://www.w3.org/2000/svg"
 width="1300.000000pt" height="1300.000000pt" viewBox="0 0 1300.000000 1300.000000"
 preserveAspectRatio="xMidYMid meet">
<metadata>
Created by potrace 1.11, written by Peter Selinger 2001-2013
</metadata>
<g transform="translate(0.000000,1300.000000) scale(0.100000,-0.100000)"
fill="#000000" stroke="none">
<path d="M6370 9510 c-640 -43 -1235 -315 -1695 -775 -406 -405 -660 -908
-752 -1490 -14 -86 -18 -169 -17 -385 0 -239 3 -293 23 -408 48 -280 146 -576
269 -812 64 -123 197 -327 273 -421 335 -410 464 -592 593 -842 169 -325 243
-537 346 -989 l51 -226 -21 -34 c-51 -84 -2 -192 98 -213 31 -6 32 -9 32 -53
0 -42 -4 -50 -36 -76 -42 -34 -64 -80 -64 -136 0 -56 22 -102 64 -136 34 -27
36 -32 36 -87 0 -54 -2 -60 -36 -90 -86 -75 -86 -206 -1 -271 35 -27 35 -28
39 -114 5 -121 34 -182 136 -282 43 -41 94 -83 113 -94 26 -14 45 -37 73 -93
74 -143 216 -256 398 -315 123 -40 303 -50 424 -23 228 50 394 167 486 341 29
54 47 75 85 99 78 48 166 144 204 220 28 58 34 80 37 159 4 83 6 93 32 121 53
56 63 120 31 190 -10 22 -28 49 -40 59 -18 16 -21 30 -21 95 0 69 3 78 27 101
70 66 69 175 -1 239 -23 22 -26 32 -26 88 0 60 1 63 24 63 76 0 132 121 91
199 -13 27 -11 44 31 227 82 364 126 514 223 757 115 287 341 650 610 977 180
219 202 248 291 390 65 104 166 306 214 427 276 705 239 1491 -100 2158 -37
72 -80 149 -95 172 -16 23 -29 44 -29 47 0 13 -161 234 -218 301 -127 147
-332 336 -484 447 -242 176 -632 357 -888 412 -36 8 -98 21 -137 30 -188 41
-483 60 -693 46z m454 -95 c132 -15 304 -47 366 -67 19 -6 42 -12 50 -13 8 -1
22 -5 30 -8 8 -3 47 -15 85 -28 175 -55 411 -168 578 -276 95 -62 266 -192
305 -233 9 -9 24 -21 33 -26 27 -15 217 -223 298 -326 106 -134 174 -233 186
-266 6 -16 15 -35 21 -43 14 -18 93 -171 117 -227 148 -345 216 -675 217
-1042 0 -415 -113 -861 -307 -1213 -61 -109 -178 -286 -244 -369 -30 -36 -99
-122 -154 -190 -154 -188 -273 -359 -378 -538 -75 -129 -237 -465 -237 -493 0
-7 -4 -17 -9 -22 -5 -6 -32 -81 -60 -168 -44 -139 -82 -291 -147 -584 l-18
-83 -300 0 c-271 0 -301 -2 -320 -17 -20 -17 -20 -17 -7 0 13 16 -8 17 -404
17 -396 0 -417 -1 -404 -18 13 -16 13 -16 -7 1 -19 15 -48 17 -297 17 l-276 0
-10 38 c-5 20 -22 93 -36 162 -55 265 -125 503 -202 695 -48 117 -176 380
-198 405 -8 8 -34 51 -58 95 -24 44 -82 133 -128 199 -46 65 -91 128 -99 141
-16 23 -72 93 -202 249 -505 610 -707 1322 -593 2088 53 350 210 746 413 1038
114 163 311 384 442 496 216 184 486 349 717 438 51 19 103 41 115 47 13 7 30
13 38 14 8 1 67 16 130 33 319 86 649 113 954 77z m-1014 -28 c0 -2 -10 -12
-22 -23 l-23 -19 19 23 c18 21 26 27 26 19z m1415 -17 c10 -11 16 -20 13 -20
-3 0 -13 9 -23 20 -10 11 -16 20 -13 20 3 0 13 -9 23 -20z m1876 -1857 c13
-16 12 -17 -3 -4 -10 7 -18 15 -18 17 0 8 8 3 21 -13z m-2226 -4393 c-4 -7
108 -10 327 -10 253 0 338 -3 350 -12 27 -22 29 -46 5 -73 l-22 -25 -992 0
c-545 0 -999 3 -1008 6 -39 15 -38 83 1 98 9 3 310 6 669 6 422 0 656 4 660
10 3 6 8 10 11 10 3 0 2 -4 -1 -10z m-520 -170 c10 -11 16 -20 13 -20 -3 0
-13 9 -23 20 -10 11 -16 20 -13 20 3 0 13 -9 23 -20z m355 6 c0 -2 -8 -10 -17
-17 -16 -13 -17 -12 -4 4 13 16 21 21 21 13z m-267 -55 c5 -1 6 -5 3 -10 -11
-18 21 -29 77 -28 33 1 61 -1 64 -6 2 -4 9 -4 15 -1 6 4 9 1 6 -7 -3 -8 -17
-14 -31 -15 -14 -1 -24 2 -22 6 3 5 -15 10 -40 12 -33 2 -44 0 -40 -9 9 -24
-22 -13 -59 20 -43 40 -45 49 -8 43 15 -2 31 -5 35 -5z m165 -4 c7 -5 9 -13 6
-19 -4 -7 -2 -8 4 -4 6 4 9 12 6 19 -3 8 6 13 22 15 27 2 27 2 8 -19 -14 -16
-15 -23 -7 -26 10 -4 9 -8 -1 -19 -8 -8 -18 -14 -22 -14 -4 0 -4 3 -1 7 10 10
-14 34 -27 26 -6 -4 -4 1 4 12 14 16 13 17 -8 11 -12 -4 -22 -3 -22 1 0 5 -24
6 -54 3 -35 -4 -52 -2 -50 5 5 12 123 13 142 2z m-895 -4 c-7 -2 -21 -2 -30 0
-10 3 -4 5 12 5 17 0 24 -2 18 -5z m475 0 c-75 -2 -201 -2 -280 0 -79 1 -17 3
137 3 154 0 218 -2 143 -3z m1070 0 c-97 -2 -259 -2 -360 0 -101 1 -21 2 177
2 198 0 280 -1 183 -2z m-905 -20 c-7 -2 -19 -2 -25 0 -7 3 -2 5 12 5 14 0 19
-2 13 -5z m352 -13 c3 -5 1 -10 -4 -10 -6 0 -11 5 -11 10 0 6 2 10 4 10 3 0 8
-4 11 -10z m-542 -7 c-90 -2 -236 -2 -325 0 -90 1 -17 3 162 3 179 0 252 -2
163 -3z m1085 0 c-98 -2 -258 -2 -355 0 -98 1 -18 2 177 2 195 0 275 -1 178
-2z m-703 -55 c19 17 19 16 2 -4 -16 -20 -16 -22 1 -37 17 -15 63 -17 466 -17
l448 0 29 -29 c20 -20 29 -39 29 -61 0 -22 -9 -41 -29 -61 l-29 -29 -357 0
c-339 0 -357 -1 -344 -17 13 -17 13 -17 -7 0 -18 15 -45 17 -229 17 -184 0
-211 -2 -229 -17 -20 -17 -20 -17 -7 0 13 16 -4 17 -324 17 -321 0 -339 1
-370 20 -52 32 -53 98 -3 142 20 17 49 18 456 18 393 0 437 2 454 17 18 16 18
17 -4 42 l-23 26 25 -22 c25 -22 27 -22 45 -5z m316 -332 c7 4 10 3 6 -3 -9
-15 14 -31 38 -27 11 1 28 -4 37 -13 17 -15 17 -17 1 -35 -15 -17 -17 -17 -35
-2 -10 10 -18 14 -18 11 0 -4 -9 1 -20 10 -11 10 -20 23 -20 31 0 8 -5 10 -12
6 -7 -4 -10 -3 -5 1 4 5 -1 18 -10 29 -18 21 -18 21 4 3 12 -11 27 -16 34 -11z
m-640 1 c-17 -21 -2 -28 24 -11 19 13 23 13 28 0 4 -10 0 -12 -14 -9 -11 3
-21 -1 -25 -11 -3 -9 -10 -16 -16 -16 -5 0 -6 5 -3 10 12 19 -7 10 -50 -25
-27 -22 -46 -32 -50 -25 -3 6 -11 8 -16 5 -5 -3 -6 2 -2 11 5 13 3 15 -8 9 -8
-5 -6 1 4 13 21 23 64 28 45 5 -12 -15 -22 -17 -13 -3 3 6 2 10 -4 10 -17 0
-21 -16 -8 -33 11 -15 16 -12 48 23 19 22 33 43 30 47 -3 3 -1 3 6 -1 6 -3 14
-2 18 4 3 5 9 10 12 10 3 0 0 -6 -6 -13z m-41 -1 c0 -3 -4 -8 -10 -11 -5 -3
-10 -1 -10 4 0 6 5 11 10 11 6 0 10 -2 10 -4z m130 -11 c11 -13 10 -14 -4 -9
-9 3 -16 10 -16 15 0 13 6 11 20 -6z m450 10 c0 -2 -10 -10 -22 -16 -21 -11
-22 -11 -9 4 13 16 31 23 31 12z m54 -16 c-8 -14 -21 -11 -21 5 0 8 6 12 14 9
7 -3 10 -9 7 -14z m-1097 -5 c-3 -3 -12 -4 -19 -1 -8 3 -5 6 6 6 11 1 17 -2
13 -5z m1670 0 c-3 -3 -12 -4 -19 -1 -8 3 -5 6 6 6 11 1 17 -2 13 -5z m-150
-154 l221 0 31 -26 c40 -33 42 -77 5 -119 l-26 -30 -929 0 -929 0 -24 25 c-37
38 -41 69 -14 110 l24 35 219 3 c190 2 222 5 239 20 20 16 20 16 7 0 -13 -17
11 -18 464 -18 l478 0 -19 23 -19 22 26 -22 c25 -22 31 -23 246 -23z m-2 -220
c10 -11 16 -20 13 -20 -3 0 -13 9 -23 20 -10 11 -16 20 -13 20 3 0 13 -9 23
-20z m-1405 6 c0 -2 -8 -10 -17 -17 -16 -13 -17 -12 -4 4 13 16 21 21 21 13z
m-92 -69 c8 -6 12 -6 12 2 0 6 8 11 18 11 14 -1 14 -3 -6 -20 -14 -11 -18 -21
-12 -25 8 -5 7 -11 -1 -21 -10 -12 99 -14 762 -17 l774 -2 -784 -3 c-763 -2
-784 -2 -767 17 14 16 15 20 2 30 -11 9 -16 9 -22 0 -5 -8 -3 -9 6 -4 26 16 3
-19 -28 -43 -39 -30 -40 -26 -7 18 17 23 22 37 15 44 -5 5 -10 13 -10 16 0 10
34 8 48 -3z m1480 -26 c-7 -9 -13 -17 -14 -19 -1 -1 -1 11 0 27 1 22 4 27 14
19 10 -8 10 -14 0 -27z m79 24 c-7 -18 9 -30 19 -14 5 8 3 9 -6 4 -9 -6 -11
-4 -6 4 6 9 12 9 25 -3 10 -9 20 -13 23 -10 3 3 5 -3 5 -13 -1 -10 3 -17 10
-16 6 1 17 -4 23 -12 10 -12 10 -15 0 -15 -9 0 -7 -7 6 -22 l19 -23 -26 23
c-14 12 -29 22 -33 22 -9 0 -86 77 -86 85 0 3 7 5 16 5 10 0 14 -6 11 -15z
m-1492 -5 c-3 -5 -11 -10 -16 -10 -6 0 -7 5 -4 10 3 6 11 10 16 10 6 0 7 -4 4
-10z m25 -15 c-7 -9 -15 -13 -17 -11 -6 6 20 36 26 30 2 -2 -2 -10 -9 -19z
m1430 11 c0 -2 -8 -10 -17 -17 -16 -13 -17 -12 -4 4 13 16 21 21 21 13z
m-1570 -30 c0 -2 -7 -7 -16 -10 -8 -3 -12 -2 -9 4 6 10 25 14 25 6z m1737 -12
c-3 -3 -12 -4 -19 -1 -8 3 -5 6 6 6 11 1 17 -2 13 -5z m48 -124 c10 -11 16
-20 13 -20 -3 0 -13 9 -23 20 -10 11 -16 20 -13 20 3 0 13 -9 23 -20z m-76
-11 c-6 -11 -26 -38 -46 -60 l-35 -39 -765 0 c-863 0 -793 -7 -841 79 l-23 41
861 0 860 0 -11 -21z m-348 -352 c-10 -9 -11 -8 -5 6 3 10 9 15 12 12 3 -3 0
-11 -7 -18z m-981 -2 c7 -9 8 -15 2 -15 -5 0 -12 7 -16 15 -3 8 -4 15 -2 15 2
0 9 -7 16 -15z m-35 -5 c3 -5 1 -10 -4 -10 -6 0 -11 5 -11 10 0 6 2 10 4 10 3
0 8 -4 11 -10z m1016 -33 c-10 -9 -11 -8 -5 6 3 10 9 15 12 12 3 -3 0 -11 -7
-18z m-897 -37 c2 -3 -13 -5 -34 -5 -21 0 -37 3 -34 6 4 8 60 6 68 -1z m773 4
c-3 -3 -12 -4 -19 -1 -8 3 -5 6 6 6 11 1 17 -2 13 -5z m88 -4 c-3 -5 -12 -10
-18 -10 -7 0 -6 4 3 10 19 12 23 12 15 0z m-70 -20 c-3 -5 -11 -10 -16 -10 -6
0 -7 5 -4 10 3 6 11 10 16 10 6 0 7 -4 4 -10z m-787 -21 c3 -12 2 -12 -6 0 -6
8 -15 10 -22 6 -9 -5 -11 -4 -6 4 10 15 28 10 34 -10z m748 -16 c-11 -11 -17
4 -9 23 7 18 8 18 11 1 2 -10 1 -21 -2 -24z m54 13 c0 -2 -7 -6 -15 -10 -8 -3
-15 -1 -15 4 0 6 7 10 15 10 8 0 15 -2 15 -4z m-750 -36 c8 -5 11 -10 5 -10
-5 0 -17 5 -25 10 -8 5 -10 10 -5 10 6 0 17 -5 25 -10z m614 -4 c-10 -8 -21
-12 -24 -10 -5 6 21 24 34 24 6 0 1 -6 -10 -14z m42 -11 c-36 -19 -47 -19 -22
0 11 8 27 15 35 15 9 0 3 -7 -13 -15z m-591 -5 c-27 -12 -43 -12 -25 0 8 5 22
9 30 9 10 0 8 -3 -5 -9z m95 -30 c0 -5 -13 -2 -30 6 -16 9 -30 17 -30 19 0 2
14 -1 30 -6 17 -6 30 -15 30 -19z m-75 10 c3 -6 -1 -7 -9 -4 -18 7 -21 14 -7
14 6 0 13 -4 16 -10z m510 0 c-3 -5 -16 -10 -28 -9 -20 1 -20 2 3 9 14 4 26 8
28 9 2 1 0 -3 -3 -9z m-328 -46 c-3 -3 -12 -4 -19 -1 -8 3 -5 6 6 6 11 1 17
-2 13 -5z m86 -1 c-7 -2 -19 -2 -25 0 -7 3 -2 5 12 5 14 0 19 -2 13 -5z"/>
<path d="M6420 2892 c0 -7 0 -15 0 -19 0 -5 3 -8 8 -8 4 0 14 -4 22 -9 9 -6 7
0 -5 15 -11 13 -21 26 -22 28 -2 2 -3 -1 -3 -7z"/>
<path d="M6510 2755 c-11 -13 -8 -15 15 -15 23 0 26 2 15 15 -7 8 -14 15 -15
15 -1 0 -8 -7 -15 -15z"/>
<path d="M6901 2409 c13 -26 25 -31 38 -15 13 16 -3 33 -31 33 -13 0 -15 -4
-7 -18z"/>
<path d="M5710 2002 c0 -5 7 -9 15 -9 8 0 12 4 9 9 -3 4 -9 8 -15 8 -5 0 -9
-4 -9 -8z"/>
</g>
</svg>
