<?xml version="1.0" standalone="no"?>
<!DOCTYPE svg PUBLIC "-//W3C//DTD SVG 20010904//EN"
 "http://www.w3.org/TR/2001/REC-SVG-20010904/DTD/svg10.dtd">
<svg version="1.0" xmlns="http://www.w3.org/2000/svg"
 width="512.000000pt" height="512.000000pt" viewBox="0 0 512.000000 512.000000"
 preserveAspectRatio="xMidYMid meet">
<metadata>
Created by potrace 1.11, written by Peter Selinger 2001-2013
</metadata>
<g transform="translate(0.000000,512.000000) scale(0.100000,-0.100000)"
fill="#000000" stroke="none">
<path d="M1222 5100 c-151 -54 -260 -202 -255 -348 0 -17 -10 -28 -36 -42
-166 -85 -164 -318 4 -403 l30 -15 0 -224 c1 -197 3 -226 19 -250 20 -31 71
-51 118 -46 l33 3 -3 -44 c-8 -108 -57 -181 -207 -309 -64 -53 -112 -127 -144
-217 l-24 -70 -1 -1354 c-1 -1037 2 -1368 11 -1414 34 -166 168 -307 334 -351
46 -12 265 -15 1451 -15 982 -1 1413 2 1450 10 146 31 286 155 334 295 24 73
26 81 28 219 2 114 0 133 -16 158 -11 15 -28 27 -39 27 -17 0 -19 8 -19 90 0
86 1 90 24 96 53 13 51 -28 51 1143 l-1 1086 -22 70 c-27 87 -78 167 -145 225
-156 136 -200 200 -208 310 -4 43 -3 45 21 42 64 -8 121 21 138 69 4 13 8 122
8 241 -1 216 -1 217 21 223 34 8 92 63 115 109 27 53 27 129 0 187 -28 59 -41
74 -92 103 -40 23 -44 29 -47 67 -6 96 -60 201 -134 261 -91 74 -150 88 -365
88 -151 0 -156 -1 -179 -25 -14 -13 -25 -30 -25 -38 0 -10 -19 -13 -82 -12
-79 0 -82 1 -99 29 -10 16 -23 33 -31 37 -7 5 -452 8 -988 8 -924 -1 -978 -2
-1028 -19z"/>
</g>
</svg>
