<svg data-v-423bf9ae="" xmlns="http://www.w3.org/2000/svg" viewBox="0 0 376.1981798803269 60" class="font"><!----><!----><!----><g data-v-423bf9ae="" id="f0ba21a3-dbe3-47d7-9a19-f4c5d7e358d5" fill="black" transform="matrix(6.066733864221661,0,0,6.066733864221661,-2.5480296551674826,0.3640039867128735)"><path d="M6.64 2.28L6.64 2.28L6.64 2.28Q6.30 2.28 6.06 2.04L6.06 2.04L6.06 2.04Q5.82 1.81 5.82 1.46L5.82 1.46L5.82 1.46Q5.82 1.25 5.92 1.06L5.92 1.06L5.92 1.06Q6.02 0.88 6.18 0.78L6.18 0.78L6.18 0.78Q6.34 0.67 6.54 0.64L6.54 0.64L6.54 0.64Q6.75 0.62 6.94 0.70L6.94 0.70L6.94 0.70Q6.62 0.24 5.95 0.24L5.95 0.24L3.37 0.24L3.37 4.75L6.06 4.75L6.06 5.03L3.37 5.03L3.37 9.55L4.70 9.55L4.70 9.83L0.42 9.83L0.42 9.55L1.74 9.55L1.74 0.24L0.42 0.24L0.42-0.06L5.96-0.06L5.96-0.06Q6.62-0.06 7.04 0.37L7.04 0.37L7.04 0.37Q7.46 0.80 7.46 1.46L7.46 1.46L7.46 1.46Q7.46 1.79 7.21 2.04L7.21 2.04L7.21 2.04Q6.96 2.28 6.64 2.28ZM9.55 9.83L9.55 9.83L9.55 9.83Q8.97 9.83 8.46 9.60L8.46 9.60L8.46 9.60Q7.94 9.37 7.55 8.98L7.55 8.98L7.55 8.98Q7.17 8.60 6.94 8.08L6.94 8.08L6.94 8.08Q6.71 7.56 6.71 6.99L6.71 6.99L6.71 6.99Q6.71 6.40 6.93 5.88L6.93 5.88L6.93 5.88Q7.15 5.36 7.54 4.98L7.54 4.98L7.54 4.98Q7.92 4.59 8.44 4.37L8.44 4.37L8.44 4.37Q8.96 4.14 9.55 4.14L9.55 4.14L9.55 4.14Q10.14 4.14 10.65 4.37L10.65 4.37L10.65 4.37Q11.17 4.59 11.56 4.98L11.56 4.98L11.56 4.98Q11.94 5.36 12.17 5.88L12.17 5.88L12.17 5.88Q12.39 6.40 12.39 6.99L12.39 6.99L12.39 6.99Q12.39 7.57 12.17 8.08L12.17 8.08L12.17 8.08Q11.94 8.60 11.55 8.99L11.55 8.99L11.55 8.99Q11.16 9.38 10.65 9.60L10.65 9.60L10.65 9.60Q10.14 9.83 9.55 9.83ZM10.75 8.34L10.75 5.64L10.75 5.64Q10.75 5.39 10.65 5.17L10.65 5.17L10.65 5.17Q10.56 4.94 10.39 4.78L10.39 4.78L10.39 4.78Q10.23 4.62 10.02 4.52L10.02 4.52L10.02 4.52Q9.80 4.42 9.55 4.42L9.55 4.42L9.55 4.42Q9.04 4.42 8.69 4.78L8.69 4.78L8.69 4.78Q8.33 5.14 8.33 5.64L8.33 5.64L8.33 8.34L8.33 8.34Q8.33 8.60 8.43 8.81L8.43 8.81L8.43 8.81Q8.53 9.03 8.69 9.19L8.69 9.19L8.69 9.19Q8.85 9.35 9.07 9.45L9.07 9.45L9.07 9.45Q9.30 9.55 9.55 9.55L9.55 9.55L9.55 9.55Q9.80 9.55 10.02 9.45L10.02 9.45L10.02 9.45Q10.23 9.35 10.40 9.19L10.40 9.19L10.40 9.19Q10.57 9.03 10.66 8.81L10.66 8.81L10.66 8.81Q10.75 8.60 10.75 8.34L10.75 8.34ZM16.00 9.83L16.00 9.83L16.00 9.83Q15.43 9.83 14.91 9.60L14.91 9.60L14.91 9.60Q14.39 9.37 14.01 8.98L14.01 8.98L14.01 8.98Q13.62 8.60 13.39 8.08L13.39 8.08L13.39 8.08Q13.16 7.56 13.16 6.99L13.16 6.99L13.16 6.99Q13.16 6.40 13.38 5.88L13.38 5.88L13.38 5.88Q13.61 5.36 13.99 4.98L13.99 4.98L13.99 4.98Q14.38 4.59 14.90 4.37L14.90 4.37L14.90 4.37Q15.41 4.14 16.00 4.14L16.00 4.14L16.00 4.14Q16.59 4.14 17.11 4.37L17.11 4.37L17.11 4.37Q17.63 4.59 18.01 4.98L18.01 4.98L18.01 4.98Q18.40 5.36 18.62 5.88L18.62 5.88L18.62 5.88Q18.84 6.40 18.84 6.99L18.84 6.99L18.84 6.99Q18.84 7.57 18.62 8.08L18.62 8.08L18.62 8.08Q18.40 8.60 18.00 8.99L18.00 8.99L18.00 8.99Q17.61 9.38 17.10 9.60L17.10 9.60L17.10 9.60Q16.59 9.83 16.00 9.83ZM17.21 8.34L17.21 5.64L17.21 5.64Q17.21 5.39 17.11 5.17L17.11 5.17L17.11 5.17Q17.01 4.94 16.85 4.78L16.85 4.78L16.85 4.78Q16.69 4.62 16.47 4.52L16.47 4.52L16.47 4.52Q16.25 4.42 16.00 4.42L16.00 4.42L16.00 4.42Q15.50 4.42 15.14 4.78L15.14 4.78L15.14 4.78Q14.78 5.14 14.78 5.64L14.78 5.64L14.78 8.34L14.78 8.34Q14.78 8.60 14.88 8.81L14.88 8.81L14.88 8.81Q14.98 9.03 15.14 9.19L15.14 9.19L15.14 9.19Q15.30 9.35 15.53 9.45L15.53 9.45L15.53 9.45Q15.75 9.55 16.00 9.55L16.00 9.55L16.00 9.55Q16.25 9.55 16.47 9.45L16.47 9.45L16.47 9.45Q16.69 9.35 16.86 9.19L16.86 9.19L16.86 9.19Q17.02 9.03 17.12 8.81L17.12 8.81L17.12 8.81Q17.21 8.60 17.21 8.34L17.21 8.34ZM26.66 9.83L22.47 9.83L22.47 9.83Q21.88 9.83 21.36 9.60L21.36 9.60L21.36 9.60Q20.83 9.38 20.45 8.99L20.45 8.99L20.45 8.99Q20.06 8.60 19.84 8.07L19.84 8.07L19.84 8.07Q19.61 7.55 19.61 6.94L19.61 6.94L19.61 6.94Q19.61 6.33 19.83 5.80L19.83 5.80L19.83 5.80Q20.05 5.28 20.43 4.89L20.43 4.89L20.43 4.89Q20.82 4.49 21.34 4.28L21.34 4.28L21.34 4.28Q21.85 4.06 22.47 4.06L22.47 4.06L23.69 4.06L23.69 0.24L22.37 0.24L22.37-0.06L25.33-0.04L25.33 9.55L26.66 9.55L26.66 9.83ZM23.69 9.55L23.69 4.34L22.47 4.34L22.47 4.34Q22.23 4.34 22.02 4.44L22.02 4.44L22.02 4.44Q21.80 4.55 21.63 4.72L21.63 4.72L21.63 4.72Q21.46 4.90 21.36 5.12L21.36 5.12L21.36 5.12Q21.25 5.35 21.25 5.57L21.25 5.57L21.25 8.32L21.25 8.32Q21.25 8.83 21.61 9.19L21.61 9.19L21.61 9.19Q21.97 9.55 22.48 9.55L22.48 9.55L23.69 9.55ZM33.50 2.28L33.50 2.28L33.50 2.28Q33.17 2.28 32.93 2.04L32.93 2.04L32.93 2.04Q32.69 1.81 32.69 1.46L32.69 1.46L32.69 1.46Q32.69 1.25 32.79 1.06L32.79 1.06L32.79 1.06Q32.89 0.88 33.05 0.78L33.05 0.78L33.05 0.78Q33.21 0.67 33.41 0.64L33.41 0.64L33.41 0.64Q33.61 0.62 33.81 0.70L33.81 0.70L33.81 0.70Q33.49 0.24 32.82 0.24L32.82 0.24L30.24 0.24L30.24 4.75L32.93 4.75L32.93 5.03L30.24 5.03L30.24 9.55L31.57 9.55L31.57 9.83L27.29 9.83L27.29 9.55L28.60 9.55L28.60 0.24L27.29 0.24L27.29-0.06L32.83-0.06L32.83-0.06Q33.49-0.06 33.91 0.37L33.91 0.37L33.91 0.37Q34.33 0.80 34.33 1.46L34.33 1.46L34.33 1.46Q34.33 1.79 34.08 2.04L34.08 2.04L34.08 2.04Q33.82 2.28 33.50 2.28ZM36.37 3.00L36.37 3.00L36.37 3.00Q36.04 3.00 35.81 2.76L35.81 2.76L35.81 2.76Q35.57 2.52 35.57 2.17L35.57 2.17L35.57 2.17Q35.57 1.83 35.81 1.59L35.81 1.59L35.81 1.59Q36.04 1.34 36.37 1.34L36.37 1.34L36.37 1.34Q36.71 1.34 36.94 1.59L36.94 1.59L36.94 1.59Q37.17 1.83 37.17 2.17L37.17 2.17L37.17 2.17Q37.17 2.52 36.94 2.76L36.94 2.76L36.94 2.76Q36.71 3.00 36.37 3.00ZM38.47 9.83L34.27 9.83L34.27 9.55L35.57 9.55L35.57 4.37L34.27 4.37L34.27 4.09L37.17 4.09L37.17 9.55L38.47 9.55L38.47 9.83ZM42.53 9.37L42.53 9.37L42.53 9.37Q42.32 9.34 42.18 9.18L42.18 9.18L42.18 9.18Q42.04 9.02 42.04 8.79L42.04 8.79L42.04 8.79Q42.04 8.55 42.22 8.38L42.22 8.38L42.22 8.38Q42.39 8.20 42.63 8.20L42.63 8.20L42.63 8.20Q42.87 8.20 43.04 8.38L43.04 8.38L43.04 8.38Q43.22 8.55 43.22 8.79L43.22 8.79L43.22 8.79Q43.22 9.09 43.06 9.29L43.06 9.29L43.06 9.29Q42.91 9.49 42.69 9.61L42.69 9.61L42.69 9.61Q42.46 9.73 42.20 9.78L42.20 9.78L42.20 9.78Q41.94 9.83 41.73 9.83L41.73 9.83L41.73 9.83Q41.12 9.83 40.60 9.61L40.60 9.61L40.60 9.61Q40.08 9.39 39.70 9.02L39.70 9.02L39.70 9.02Q39.33 8.64 39.11 8.12L39.11 8.12L39.11 8.12Q38.89 7.60 38.89 6.99L38.89 6.99L38.89 6.99Q38.89 6.40 39.12 5.89L39.12 5.89L39.12 5.89Q39.34 5.38 39.73 4.98L39.73 4.98L39.73 4.98Q40.12 4.59 40.64 4.37L40.64 4.37L40.64 4.37Q41.15 4.14 41.73 4.14L41.73 4.14L41.73 4.14Q42.36 4.14 42.88 4.39L42.88 4.39L42.88 4.39Q43.40 4.63 43.78 5.04L43.78 5.04L43.78 5.04Q44.16 5.45 44.37 5.98L44.37 5.98L44.37 5.98Q44.58 6.52 44.58 7.13L44.58 7.13L40.52 7.13L40.52 8.34L40.52 8.34Q40.52 8.60 40.61 8.81L40.61 8.81L40.61 8.81Q40.71 9.03 40.87 9.19L40.87 9.19L40.87 9.19Q41.03 9.35 41.26 9.45L41.26 9.45L41.26 9.45Q41.48 9.55 41.73 9.55L41.73 9.55L41.73 9.55Q41.93 9.55 42.14 9.51L42.14 9.51L42.14 9.51Q42.35 9.46 42.53 9.37ZM42.94 6.85L42.94 5.64L42.94 5.64Q42.94 5.11 42.60 4.77L42.60 4.77L42.60 4.77Q42.27 4.42 41.73 4.42L41.73 4.42L41.73 4.42Q41.20 4.42 40.87 4.77L40.87 4.77L40.87 4.77Q40.53 5.11 40.52 5.64L40.52 5.64L40.52 5.64Q40.54 5.88 40.54 6.22L40.54 6.22L40.54 6.22Q40.53 6.57 40.52 6.85L40.52 6.85L42.94 6.85ZM47.77 4.49L47.77 4.49L47.77 4.49Q47.63 4.42 47.49 4.42L47.49 4.42L47.49 4.42Q47.25 4.42 47.10 4.57L47.10 4.57L47.10 4.57Q46.96 4.72 46.96 4.96L46.96 4.96L46.96 4.96Q46.96 5.46 47.49 5.50L47.49 5.50L47.49 5.50Q48.44 5.57 49.04 6.09L49.04 6.09L49.04 6.09Q49.63 6.61 49.63 7.66L49.63 7.66L49.63 7.66Q49.63 8.13 49.46 8.53L49.46 8.53L49.46 8.53Q49.29 8.93 49 9.21L49 9.21L49 9.21Q48.71 9.49 48.31 9.65L48.31 9.65L48.31 9.65Q47.91 9.81 47.45 9.81L47.45 9.81L47.45 9.81Q46.98 9.81 46.59 9.65L46.59 9.65L46.59 9.65Q46.20 9.49 45.93 9.21L45.93 9.21L45.93 9.21Q45.65 8.92 45.50 8.53L45.50 8.53L45.50 8.53Q45.35 8.13 45.35 7.66L45.35 7.66L45.35 7.66Q45.35 7.32 45.58 7.08L45.58 7.08L45.58 7.08Q45.82 6.85 46.14 6.85L46.14 6.85L46.14 6.85Q46.48 6.85 46.72 7.08L46.72 7.08L46.72 7.08Q46.96 7.32 46.96 7.66L46.96 7.66L46.96 7.66Q46.96 7.90 46.84 8.08L46.84 8.08L46.84 8.08Q46.73 8.26 46.56 8.36L46.56 8.36L46.56 8.36Q46.38 8.47 46.17 8.48L46.17 8.48L46.17 8.48Q45.95 8.48 45.75 8.37L45.75 8.37L45.75 8.37Q45.95 8.95 46.39 9.25L46.39 9.25L46.39 9.25Q46.83 9.55 47.49 9.55L47.49 9.55L47.49 9.55Q47.71 9.55 47.87 9.39L47.87 9.39L47.87 9.39Q48.02 9.24 48.02 9.02L48.02 9.02L48.02 6.31L48.02 6.31Q48.02 6.08 47.87 5.93L47.87 5.93L47.87 5.93Q47.71 5.78 47.49 5.78L47.49 5.78L47.49 5.78Q47.12 5.78 46.90 5.55L46.90 5.55L46.90 5.55Q46.68 5.32 46.68 4.96L46.68 4.96L46.68 4.96Q46.68 4.61 46.90 4.37L46.90 4.37L46.90 4.37Q47.12 4.14 47.49 4.14L47.49 4.14L47.49 4.14Q47.82 4.14 48.05 4.38L48.05 4.38L48.05 4.38Q48.29 4.62 48.29 4.97L48.29 4.97L48.29 4.97Q48.29 5.17 48.15 5.30L48.15 5.30L48.15 5.30Q48.02 5.43 47.82 5.43L47.82 5.43L47.82 5.43Q47.63 5.43 47.49 5.30L47.49 5.30L47.49 5.30Q47.35 5.17 47.35 4.97L47.35 4.97L47.35 4.97Q47.35 4.77 47.47 4.65L47.47 4.65L47.47 4.65Q47.59 4.52 47.77 4.49ZM55.65 4.34L52.99 4.34L52.99 9.55L54.31 9.55L54.31 9.83L50.05 9.83L50.05 9.55L51.37 9.55L51.37 4.34L50.05 4.34L50.05 4.06L51.37 4.06L51.37 0.24L50.05 0.24L50.05-0.06L52.99-0.06L52.99 4.06L55.65 4.06L55.65 4.34ZM62.43 9.83L59.46 9.83L59.46 9.55L59.46 9.55Q58.87 9.83 58.24 9.83L58.24 9.83L58.24 9.83Q57.65 9.83 57.13 9.60L57.13 9.60L57.13 9.60Q56.60 9.38 56.22 8.99L56.22 8.99L56.22 8.99Q55.83 8.61 55.61 8.09L55.61 8.09L55.61 8.09Q55.38 7.57 55.38 6.99L55.38 6.99L55.38 6.99Q55.38 6.40 55.61 5.88L55.61 5.88L55.61 5.88Q55.83 5.36 56.22 4.98L56.22 4.98L56.22 4.98Q56.60 4.59 57.13 4.37L57.13 4.37L57.13 4.37Q57.65 4.14 58.24 4.14L58.24 4.14L58.24 4.14Q58.87 4.14 59.46 4.42L59.46 4.42L59.46 4.14L61.10 4.14L61.10 9.55L62.43 9.55L62.43 9.83ZM59.46 8.34L59.46 5.63L59.46 5.63Q59.46 5.38 59.36 5.16L59.36 5.16L59.36 5.16Q59.26 4.94 59.10 4.78L59.10 4.78L59.10 4.78Q58.94 4.62 58.72 4.52L58.72 4.52L58.72 4.52Q58.49 4.42 58.24 4.42L58.24 4.42L58.24 4.42Q57.74 4.42 57.38 4.78L57.38 4.78L57.38 4.78Q57.02 5.14 57.02 5.64L57.02 5.64L57.02 8.34L57.02 8.34Q57.02 8.93 57.34 9.25L57.34 9.25L57.34 9.25Q57.65 9.56 58.24 9.56L58.24 9.56L58.24 9.56Q58.74 9.56 59.10 9.21L59.10 9.21L59.10 9.21Q59.46 8.85 59.46 8.34L59.46 8.34Z"></path></g><!----><!----></svg>