<?xml version="1.0" standalone="no"?>
<!DOCTYPE svg PUBLIC "-//W3C//DTD SVG 20010904//EN"
 "http://www.w3.org/TR/2001/REC-SVG-20010904/DTD/svg10.dtd">
<svg version="1.0" xmlns="http://www.w3.org/2000/svg"
 width="289.000000pt" height="289.000000pt" viewBox="0 0 289.000000 289.000000"
 preserveAspectRatio="xMidYMid meet">
<metadata>
Created by potrace 1.11, written by Peter Selinger 2001-2013
</metadata>
<g transform="translate(0.000000,289.000000) scale(0.100000,-0.100000)"
fill="#000000" stroke="none">
<path d="M1208 2554 c-397 -72 -741 -398 -855 -812 -25 -89 -27 -112 -27 -287
-1 -214 13 -289 77 -442 92 -217 304 -450 508 -558 186 -98 414 -139 644 -117
142 15 232 37 340 87 218 99 427 300 535 515 167 332 169 694 4 1021 -153 305
-459 538 -783 594 -104 19 -339 18 -443 -1z m475 -88 c343 -88 640 -357 740
-671 53 -164 63 -438 23 -597 -92 -362 -383 -658 -742 -755 -89 -24 -117 -27
-279 -27 -208 -1 -272 12 -432 89 -284 138 -487 390 -575 715 -17 60 -21 106
-21 230 0 136 3 167 26 252 98 366 363 644 717 752 120 37 187 46 325 41 85
-3 149 -11 218 -29z"/>
<path d="M710 1815 l0 -155 260 0 260 0 0 -460 0 -460 190 0 190 0 2 458 3
457 273 3 272 2 0 155 0 155 -725 0 -725 0 0 -155z"/>
</g>
</svg>
